<?xml version="1.0" standalone="no"?>
<!DOCTYPE svg PUBLIC "-//W3C//DTD SVG 20010904//EN"
 "http://www.w3.org/TR/2001/REC-SVG-20010904/DTD/svg10.dtd">
<svg version="1.0" xmlns="http://www.w3.org/2000/svg"
 width="497.000000pt" height="502.000000pt" viewBox="0 0 497.000000 502.000000"
 preserveAspectRatio="xMidYMid meet">
<metadata>
Created by potrace 1.16, written by Peter Selinger 2001-2019
</metadata>
<g transform="translate(0.000000,502.000000) scale(0.100000,-0.100000)"
fill="#000000" stroke="none">
<path d="M2391 3915 c-71 -20 -110 -45 -165 -106 -67 -74 -99 -194 -78 -288 9
-35 7 -49 -5 -67 -22 -34 -19 -91 6 -125 20 -27 21 -38 19 -226 l-3 -198 -28
73 c-16 40 -38 77 -49 83 -29 16 -74 2 -87 -27 -9 -20 -137 -352 -179 -464 -9
-24 -10 -23 -22 20 -16 62 -46 107 -91 140 -21 15 -35 30 -32 34 3 3 25 6 48
6 54 0 75 22 75 81 0 53 -44 137 -89 168 -45 33 -107 51 -171 51 -67 0 -110
-13 -165 -51 -95 -64 -130 -216 -75 -324 40 -78 95 -110 248 -141 34 -7 28
-40 -10 -60 -45 -23 -48 -29 -48 -111 0 -61 3 -76 21 -94 18 -18 29 -21 71
-16 27 4 70 18 96 32 l46 26 24 -31 c23 -29 26 -30 102 -30 60 0 82 4 98 18
11 9 39 71 62 139 24 68 46 121 50 118 4 -2 26 -59 49 -125 24 -66 47 -123 52
-126 13 -8 11 -121 -2 -130 -23 -14 -38 -70 -29 -106 8 -27 25 -45 79 -82 38
-26 92 -55 120 -65 27 -9 62 -29 77 -44 47 -47 115 -45 166 5 12 13 41 30 63
37 47 16 146 75 186 113 20 18 29 36 29 58 0 34 -25 90 -40 90 -6 0 -10 24
-10 53 l0 52 78 -3 c102 -4 123 10 130 89 l4 54 45 -44 c66 -63 137 -92 238
-99 172 -10 296 58 370 202 l40 79 0 121 c-1 109 -3 127 -27 178 -37 80 -105
149 -181 184 -56 26 -72 29 -172 29 -98 0 -116 -3 -167 -27 -31 -14 -77 -45
-102 -68 l-46 -43 0 35 c0 54 -19 97 -45 104 -13 3 -55 4 -94 2 l-71 -3 0 119
c0 111 1 120 25 148 29 34 32 75 9 121 -12 23 -17 60 -18 132 -1 80 -5 109
-22 145 -71 150 -245 229 -403 185z m172 -124 c40 -16 99 -73 118 -116 20 -44
25 -126 9 -156 -10 -18 -22 -19 -168 -19 -144 1 -154 2 -124 15 36 16 35 12
36 115 1 69 4 79 35 123 35 48 51 54 94 38z m107 -600 c0 -51 -28 -73 -81 -65
-29 5 -45 1 -75 -20 -25 -17 -53 -26 -79 -27 -62 0 -108 -20 -116 -49 -6 -20
-7 -17 -6 13 l2 38 165 73 c91 41 171 74 178 75 8 1 12 -13 12 -38z m740 -369
c37 -27 70 -98 70 -152 -1 -91 -55 -160 -137 -176 -44 -8 -122 30 -145 72 -25
43 -32 111 -18 164 13 48 65 105 102 113 38 8 102 -3 128 -21z"/>
<path d="M3263 2768 c-12 -6 -29 -26 -39 -46 -54 -114 84 -217 178 -133 29 26
33 35 33 81 0 46 -4 55 -33 81 -25 23 -41 29 -75 28 -23 0 -52 -5 -64 -11z"/>
<path d="M407 3054 c-70 -17 -109 -36 -164 -81 -86 -69 -136 -232 -113 -374
27 -178 134 -284 324 -320 66 -12 422 -12 446 1 19 10 36 51 85 198 15 45 28
82 30 82 1 0 22 -55 45 -122 54 -157 65 -168 166 -168 79 0 114 18 114 58 0
10 -60 174 -134 363 -144 372 -155 391 -212 372 -25 -8 -36 -32 -126 -264
-122 -315 -125 -322 -141 -312 -6 4 -69 10 -140 13 -137 7 -156 14 -201 74
-27 36 -29 145 -3 192 17 34 86 74 125 74 20 0 22 -5 22 -59 0 -78 16 -91 117
-91 111 0 113 4 113 188 0 201 7 192 -163 191 -76 0 -157 -7 -190 -15z"/>
<path d="M3678 3059 c-30 -17 -21 -77 30 -210 27 -68 84 -216 127 -329 43
-113 85 -213 93 -222 18 -21 75 -24 90 -5 23 27 222 559 222 592 0 24 -6 38
-19 45 -25 13 -156 13 -180 0 -10 -5 -29 -39 -42 -75 -12 -35 -24 -63 -26 -61
-2 1 -24 59 -48 127 -25 68 -53 130 -62 137 -20 15 -160 16 -185 1z"/>
<path d="M4474 3060 c-15 -6 -47 -78 -134 -301 -159 -412 -161 -417 -154 -445
9 -35 33 -44 112 -44 100 0 111 11 162 165 23 69 43 125 44 125 2 0 22 -55 46
-122 54 -156 65 -168 163 -168 78 0 88 4 105 36 15 29 8 51 -132 409 -139 355
-149 371 -212 345z"/>
<path d="M2714 1807 l-32 -12 -1 -128 c-3 -175 -1 -177 120 -177 50 0 99 5
109 10 11 6 25 28 31 50 10 33 9 43 -5 65 -9 14 -23 25 -31 25 -20 0 -19 6 6
39 24 33 19 89 -12 117 -24 21 -141 29 -185 11z"/>
<path d="M3240 1810 c-17 -4 -21 -8 -12 -14 8 -5 12 -40 12 -117 0 -90 -3
-109 -15 -109 -13 0 -15 20 -15 121 0 68 -4 118 -9 115 -5 -3 -10 -65 -10
-137 -2 -153 7 -179 62 -179 18 0 43 7 55 16 20 14 24 14 44 0 27 -19 79 -21
96 -4 20 20 14 67 -12 101 -22 29 -23 34 -11 57 29 51 11 110 -39 133 -37 17
-111 26 -146 17z"/>
<path d="M628 1803 c-16 -4 -18 -19 -18 -137 0 -168 4 -176 96 -176 117 0 172
42 160 122 -4 24 -7 54 -7 68 -3 105 -32 131 -144 129 -38 -1 -78 -3 -87 -6z"/>
<path d="M1211 1801 c-11 -7 -11 -10 4 -12 12 -3 29 -36 55 -111 33 -94 36
-108 21 -108 -12 0 -21 12 -27 38 -9 36 -11 37 -57 40 -57 4 -60 25 -4 30 35
3 36 3 25 35 -26 77 -33 75 -67 -20 -18 -48 -38 -97 -45 -108 -19 -31 -6 -78
26 -89 32 -11 78 14 78 44 0 34 18 31 37 -7 16 -34 23 -38 60 -41 36 -3 44 1
59 23 16 25 15 29 -25 142 -22 64 -48 124 -57 135 -18 19 -60 24 -83 9z"/>
<path d="M1660 1802 c-18 -8 -19 -16 -20 -160 -1 -95 1 -117 16 -133 20 -23
71 -25 100 -4 19 12 24 12 40 0 23 -18 86 -19 102 -3 19 19 14 61 -12 98 -22
32 -22 37 -9 68 18 43 9 82 -23 113 -22 20 -37 24 -102 26 -42 2 -84 -1 -92
-5z"/>
<path d="M2188 1803 c-16 -4 -18 -19 -18 -142 0 -166 3 -171 99 -171 111 0
169 43 157 117 -3 21 -9 61 -12 88 -7 63 -20 90 -51 104 -23 11 -140 13 -175
4z"/>
<path d="M3740 1800 c-23 -14 -28 -252 -6 -285 20 -31 75 -34 99 -7 24 27 25
263 1 286 -17 18 -71 21 -94 6z"/>
<path d="M4211 1801 c-11 -7 -11 -10 4 -12 12 -3 29 -36 55 -111 33 -94 36
-108 21 -108 -12 0 -21 12 -27 38 -9 36 -11 37 -56 40 -33 2 -48 -1 -48 -9 0
-7 -3 -10 -6 -7 -3 4 -1 16 6 27 8 15 20 21 45 21 34 0 34 0 23 33 -26 74 -32
73 -66 -12 -17 -43 -34 -95 -37 -114 -14 -75 42 -104 88 -46 l24 31 19 -38
c17 -35 23 -39 61 -42 35 -3 44 1 58 22 11 16 14 34 10 48 -20 69 -79 215 -92
231 -17 18 -59 22 -82 8z"/>
</g>
</svg>
